<svg width="64" height="64" viewBox="0 0 64 64" fill="none" xmlns="http://www.w3.org/2000/svg">
<path fill-rule="evenodd" clip-rule="evenodd" d="M33 8C20.304 8 10 18.304 10 31C10 43.696 20.304 54 33 54C45.673 54 56 43.696 56 31C56 18.304 45.673 8 33 8ZM48.1915 18.603C51.0229 22.0509 52.5902 26.3633 52.6334 30.8246C51.9836 30.701 45.4976 29.3785 38.9628 30.2008C38.8133 29.8787 38.6867 29.528 38.5372 29.1801C38.1376 28.2314 37.6891 27.2596 37.2406 26.3339C44.4741 23.3927 47.7689 19.1521 48.1944 18.6001L48.1915 18.603ZM33 11.3925C37.9881 11.3925 42.5536 13.2613 46.0238 16.3317C45.673 16.832 42.7031 20.7966 35.7197 23.4157C32.4998 17.5048 28.9347 12.6632 28.3856 11.9158C29.8982 11.5626 31.4468 11.387 33 11.3925ZM24.6424 13.2383C27.2749 16.8868 29.707 20.6759 31.9276 24.5888C22.7477 27.0325 14.6402 26.9836 13.7662 26.9836C14.3983 24.0101 15.7088 21.2227 17.5953 18.839C19.4819 16.4552 21.8936 14.5395 24.6424 13.2411V13.2383ZM13.3436 31.0288V30.425C14.1918 30.4538 23.7224 30.5774 33.5261 27.6334C34.0982 28.7288 34.6215 29.8529 35.1217 30.9741L34.3455 31.1984C24.2198 34.4673 18.832 43.397 18.3806 44.1474C15.1371 40.5467 13.3426 35.872 13.3436 31.0259V31.0288ZM33 50.6564C28.6345 50.6632 24.3928 49.2054 20.9537 46.5164C21.2987 45.7919 25.2921 38.1099 36.3666 34.243C36.4184 34.2171 36.4414 34.2171 36.4931 34.1941C38.3602 39.0137 39.7628 44.0005 40.682 49.0866C38.2555 50.1293 35.641 50.6635 33 50.6564ZM43.9538 47.2897C43.7525 46.0909 42.7031 40.3553 40.1358 33.2943C46.2969 32.3225 51.6846 33.9181 52.3574 34.1424C51.9383 36.795 50.9752 39.3323 49.5285 41.5949C48.0818 43.8574 46.1829 45.7963 43.9509 47.2897H43.9538Z" fill="#ABB2BF"/>
</svg>
