<svg width="64" height="64" viewBox="0 0 64 64" fill="none" xmlns="http://www.w3.org/2000/svg">
<path d="M32 32C32 30.2319 32.7375 28.5362 34.0503 27.286C35.363 26.0357 37.1435 25.3333 39 25.3333C40.8565 25.3333 42.637 26.0357 43.9497 27.286C45.2625 28.5362 46 30.2319 46 32C46 33.7681 45.2625 35.4638 43.9497 36.714C42.637 37.9643 40.8565 38.6667 39 38.6667C37.1435 38.6667 35.363 37.9643 34.0503 36.714C32.7375 35.4638 32 33.7681 32 32ZM18 45.3333C18 43.5652 18.7375 41.8695 20.0503 40.6193C21.363 39.369 23.1435 38.6667 25 38.6667H32V45.3333C32 47.1014 31.2625 48.7971 29.9497 50.0474C28.637 51.2976 26.8565 52 25 52C23.1435 52 21.363 51.2976 20.0503 50.0474C18.7375 48.7971 18 47.1014 18 45.3333ZM32 12V25.3333H39C40.8565 25.3333 42.637 24.631 43.9497 23.3807C45.2625 22.1305 46 20.4348 46 18.6667C46 16.8986 45.2625 15.2029 43.9497 13.9526C42.637 12.7024 40.8565 12 39 12H32ZM18 18.6667C18 20.4348 18.7375 22.1305 20.0503 23.3807C21.363 24.631 23.1435 25.3333 25 25.3333H32V12H25C23.1435 12 21.363 12.7024 20.0503 13.9526C18.7375 15.2029 18 16.8986 18 18.6667ZM18 32C18 33.7681 18.7375 35.4638 20.0503 36.714C21.363 37.9643 23.1435 38.6667 25 38.6667H32V25.3333H25C23.1435 25.3333 21.363 26.0357 20.0503 27.286C18.7375 28.5362 18 30.2319 18 32Z" fill="#ABB2BF"/>
</svg>
